<svg version="1.1" xmlns="http://www.w3.org/2000/svg" style="display: block;" viewBox="0 0 2048 1887" width="723" height="666">
<path transform="translate(0,0)" fill="rgb(255,255,255)" d="M 0 0 L 2048 0 L 2048 1887 L 0 1887 L 0 0 z"/>
<path transform="translate(0,0)" fill="rgb(0,0,0)" d="M 1688.91 660.994 C 1697.02 661.469 1702.9 665.497 1709.06 670.39 C 1725.53 683.469 1740.92 698.783 1756.6 712.855 L 1852.85 799.448 L 1934.72 872.812 C 1948.82 885.458 1964.22 897.889 1977.24 911.613 C 1981.2 915.781 1985.58 920.808 1986.11 926.737 C 1986.68 933.053 1986.74 936.768 1982.6 941.822 C 1970.42 956.657 1954.01 969.17 1939.65 981.924 L 1864.6 1048.63 L 1759.9 1141.43 C 1742.37 1156.99 1724.82 1175.02 1705.94 1188.72 C 1701.93 1191.63 1697.5 1193.31 1692.55 1193.7 C 1685.73 1194.23 1678.41 1192.27 1673.29 1187.61 C 1666.99 1181.87 1664.96 1173.38 1664.75 1165.15 C 1664.35 1149.65 1665.15 1134.05 1665.09 1118.54 C 1665.04 1105.19 1663.7 1090.65 1665.42 1077.46 C 1666.1 1072.24 1667.71 1067.35 1670.35 1062.79 C 1678.93 1047.94 1701.57 1027.76 1714.02 1014.91 C 1665.41 1015.04 1616.81 1016.47 1568.2 1016.97 C 1544.19 1017.14 1520.18 1017.19 1496.17 1017.11 C 1459.82 1017.11 1423.44 1016.06 1388.46 1027.77 C 1351.59 1040.11 1320.65 1064.58 1291.21 1089.23 C 1254.24 1120.18 1219.06 1153.59 1183.49 1186.17 C 1168.85 1199.58 1154.42 1213.38 1139.16 1226.08 C 1179.24 1263.98 1217.86 1303.59 1257.4 1342.07 C 1296.24 1379.86 1336.98 1426.5 1387.6 1448.48 C 1413.62 1459.78 1443.2 1462.19 1471.11 1465.31 C 1459.49 1450.56 1436.17 1427.62 1428.22 1413.24 C 1425.47 1408.26 1423.87 1402.65 1423.27 1397.01 C 1421.81 1383.34 1421.53 1324.34 1423.78 1311.98 C 1424.9 1305.81 1427.06 1299.86 1431.18 1295.03 C 1436.39 1288.92 1443.77 1286.38 1451.64 1286.14 C 1458.1 1285.93 1463.89 1290.11 1468.9 1293.87 C 1477.43 1300.27 1485.15 1308.15 1493.02 1315.37 L 1530.11 1349.02 L 1661.4 1468.21 L 1705.04 1507.51 C 1712.73 1514.45 1721.6 1521.31 1728.03 1529.43 C 1730.96 1533.12 1733.51 1537.68 1734.15 1542.42 C 1734.98 1548.48 1732.71 1554.72 1728.97 1559.44 C 1719.5 1571.42 1705.67 1582.06 1694.38 1592.49 L 1624.11 1657.35 L 1522.25 1751.53 C 1504.74 1767.75 1487.48 1785.6 1468.87 1800.48 C 1463.63 1804.66 1458.4 1807.88 1451.56 1808.5 C 1444.79 1809.1 1437.32 1807.28 1432.12 1802.78 C 1425.64 1797.18 1423.27 1788.7 1422.73 1780.44 C 1421.92 1768.31 1422.95 1755.76 1422.89 1743.56 C 1422.81 1727.25 1421.17 1709.3 1423.19 1693.16 C 1423.79 1688.2 1425.33 1683.4 1427.72 1679.02 C 1434.61 1666.43 1459.48 1641.98 1470.59 1629.44 C 1444.3 1629.16 1418.32 1628.57 1392.33 1624.2 C 1327.34 1613.28 1264.51 1578.93 1214.15 1537.21 C 1182.9 1511.32 1154.48 1482.05 1125.46 1453.72 C 1085.1 1414.33 1043.67 1375.56 1005.13 1334.38 C 980.971 1308.56 957.289 1282.13 933.546 1255.93 C 921.767 1242.94 910.316 1229.41 897.871 1217.05 C 964.392 1158.32 1029.24 1097.52 1095.18 1038.11 C 1150.58 988.202 1208.71 933.518 1273.41 896.12 C 1314.88 872.151 1362.04 854.801 1409.6 848.32 C 1452.37 842.49 1496.24 844.198 1539.33 844.194 L 1715.44 843.846 C 1702.22 829.747 1673.35 802.678 1666.99 784.979 C 1662.71 773.076 1663.15 685.393 1668.52 675.135 C 1672.76 667.051 1680.59 663.44 1688.91 660.994 z"/>
<path transform="translate(0,0)" fill="rgb(0,0,0)" d="M 1200.72 426.344 C 1204.03 426.069 1207.35 425.947 1210.67 425.979 C 1241.9 426.146 1262.61 439.723 1283.83 460.892 C 1308.98 485.964 1332.94 512.082 1357.75 537.465 C 1375.6 555.732 1489.82 668.7 1494.67 680.483 C 1499.18 691.459 1496.93 746.646 1496.95 762.006 C 1462.41 763.311 1428.51 761.02 1394.09 766.371 C 1369.44 770.204 1345.42 777.394 1321.88 785.535 C 1279.49 799.815 1239.05 819.36 1201.52 843.713 C 1158.96 871.131 1119.98 905.854 1082.1 939.34 L 985.811 1024.98 C 951.173 1056.06 918.141 1089.26 872.137 1102.79 C 840.926 1111.97 805.269 1109.11 772.985 1109.08 L 692.889 1109.1 L 430.25 1109.17 L 347.461 1109.26 C 330.489 1109.27 310.703 1111.2 294.21 1107.1 C 285.258 1104.88 278.691 1101.11 272.088 1094.67 C 270.913 1065.6 271.834 1036.11 271.81 1006.98 C 271.795 989.239 270.174 969.855 272.258 952.283 C 272.785 947.84 273.478 945.396 276.045 941.691 C 286.803 926.164 302.948 912.289 316.165 898.738 C 344.779 869.358 373.614 840.194 402.667 811.249 L 444.471 769.294 C 453.894 759.73 463.288 748.771 474.01 740.715 C 482.773 734.224 492.998 729.987 503.784 728.379 C 550.692 721.272 576.198 750.952 606.716 780.919 C 625.066 798.938 644.058 816.258 662.54 834.135 C 672.121 843.402 681.027 854.491 691.786 862.369 C 702.475 870.196 714.194 871.194 725.935 864.92 C 740.939 856.903 786.176 807.273 801.381 792.263 C 881.41 714.294 960.848 635.721 1039.69 556.552 L 1110.93 485.232 C 1124.15 471.931 1137.5 456.313 1152.53 445.091 C 1167.02 434.266 1182.98 428.95 1200.72 426.344 z"/>
<path transform="translate(0,0)" fill="rgb(0,0,0)" d="M 262.032 91.4164 C 266.618 90.9934 271.334 90.9722 275.943 90.9039 C 371.248 89.4916 466.792 90.9424 562.125 90.9412 L 1140.61 90.9484 L 1410.05 90.9365 L 1488.86 90.8791 C 1509.27 90.8717 1529.92 90.1858 1550.16 93.1181 C 1582.03 97.7333 1612.92 113.918 1635.88 136.359 C 1657.06 157.054 1672.89 185.154 1679.75 213.935 C 1685.83 239.452 1684.86 265.44 1684.81 291.448 L 1684.71 356.805 L 1684.97 590.74 C 1675.63 592.585 1666.2 594.221 1657.32 597.767 C 1628.19 609.397 1607.36 640.152 1583.8 660.189 C 1582.35 624.083 1583.35 587.598 1583.35 551.446 L 1583.39 359.192 L 1583.48 291.666 C 1583.49 276.368 1584.5 259.777 1581.9 244.698 C 1579.69 232.49 1573.79 221.252 1565 212.497 C 1555 202.577 1542.14 196.637 1528.2 195.039 C 1500.03 191.812 1459.47 194.046 1430.15 194.046 L 1239.35 194.011 L 608.5 194.011 L 376.026 194.014 L 310.711 193.98 C 295.754 193.96 280.186 193.167 265.354 195.291 C 249.53 197.556 233.959 207.035 224.539 219.924 C 216.51 230.91 212.974 243.118 212.013 256.553 C 210.335 279.995 211.138 303.839 211.15 327.334 L 211.179 442.216 L 211.172 804.215 L 211.141 1019.72 L 211.126 1078.82 C 211.13 1091.79 210.3 1105.87 212.51 1118.67 C 215.25 1134.53 225.995 1149.82 239.011 1159.05 C 246.601 1164.43 255.494 1168.3 264.738 1169.6 C 283.771 1172.26 303.734 1171.36 322.937 1171.42 L 409.587 1171.65 L 479.518 1171.84 C 493.525 1171.87 508.541 1173.03 522.359 1170.69 C 495.704 1192.42 470.124 1215.85 444.385 1238.66 C 432.822 1248.9 421.177 1260.8 408.505 1269.59 C 404.598 1272.29 400.973 1274.2 396.199 1274.81 C 379.568 1276.95 350.838 1275.14 333.133 1275.12 C 272.692 1275.02 221.833 1281.17 171.289 1240.14 C 137.64 1212.83 115.384 1173.94 111.101 1130.61 C 109.096 1110.32 110.009 1089.45 110.013 1069.08 L 110.064 968.398 L 110.046 645.396 L 110.006 369.732 L 109.951 287.562 C 109.944 268.542 109.193 249.141 111.634 230.24 C 115.658 200.919 127.715 173.283 146.471 150.39 C 176.386 113.955 215.71 95.8645 262.032 91.4164 z"/>
<path transform="translate(0,0)" fill="rgb(0,0,0)" d="M 567.772 330.098 C 648.659 325.186 718.208 386.787 723.101 467.675 C 727.994 548.563 666.378 618.098 585.489 622.972 C 504.626 627.846 435.118 566.254 430.226 485.392 C 425.335 404.529 486.911 335.008 567.772 330.098 z"/>
</svg>